<svg xmlns="http://www.w3.org/2000/svg" xmlns:xlink="http://www.w3.org/1999/xlink" width="500" zoomAndPan="magnify" viewBox="0 0 375 374.999991" height="500" preserveAspectRatio="xMidYMid meet" version="1.0"><defs><clipPath id="50f783dd63"><path d="M 10.03125 10.03125 L 364.78125 10.03125 L 364.78125 364.78125 L 10.03125 364.78125 Z M 10.03125 10.03125 " clip-rule="nonzero"/></clipPath></defs><rect x="-37.5" width="450" fill="#ffffff" y="-37.499999" height="449.999989" fill-opacity="1"/><rect x="-37.5" width="450" fill="#009400" y="-37.499999" height="449.999989" fill-opacity="1"/><g clip-path="url(#50f783dd63)"><path fill="#ffffff" d="M 261.207031 253.15625 C 260.890625 253.09375 260.851562 252.941406 260.785156 252.664062 C 260.773438 252.539062 260.796875 252.402344 260.832031 252.253906 C 260.960938 252.554688 261.089844 252.855469 261.207031 253.15625 Z M 266.65625 282.90625 C 196.378906 312.039062 189.285156 341.089844 189.285156 341.089844 C 188.570312 319.136719 202.195312 257.457031 245.621094 235.359375 C 261.640625 227.207031 282.738281 202.183594 290.980469 209.78125 C 300.425781 218.492188 255.875 244.558594 257.988281 253.292969 C 261.003906 265.785156 302.636719 234.902344 310.09375 181.898438 C 310.511719 178.902344 313.523438 177.011719 316.398438 177.960938 C 318.257812 178.578125 319.554688 180.257812 319.699219 182.214844 C 322.378906 219.5 302.738281 267.957031 266.65625 282.90625 Z M 176.734375 287.175781 C 169.980469 271.007812 157.859375 249.929688 137.5625 236.800781 L 137.300781 236.894531 L 137.171875 236.550781 C 135.402344 235.417969 133.582031 234.34375 131.695312 233.347656 C 132.816406 232.632812 133.996094 231.953125 135.203125 231.28125 L 127.566406 210.875 C 126.203125 207.230469 123.507812 204.042969 119.824219 202.792969 C 119.78125 202.773438 119.75 202.753906 119.714844 202.734375 C 114.25 204.0625 109.582031 197.230469 105.878906 192.808594 C 103.460938 189.910156 99.980469 190.039062 99.980469 190.039062 L 80.914062 174.808594 L 97.5 186.144531 C 99.492188 187.507812 102.050781 187.691406 104.253906 186.699219 C 104.296875 186.675781 104.339844 186.65625 104.386719 186.636719 C 107.890625 190.90625 112.15625 195.5 117.320312 193.566406 C 117.992188 193.316406 118.660156 192.945312 119.324219 192.472656 C 121.042969 194.332031 122.433594 196.210938 123.339844 197.546875 C 123.671875 198.027344 124.292969 198.222656 124.84375 198.019531 L 124.863281 198.011719 C 125.414062 197.804688 125.753906 197.253906 125.683594 196.664062 C 125.496094 195.0625 125.3125 192.738281 125.382812 190.203125 C 126.195312 190.125 126.945312 189.964844 127.617188 189.710938 C 132.777344 187.78125 132.984375 181.511719 132.828125 175.996094 C 132.871094 175.980469 132.917969 175.96875 132.964844 175.953125 C 135.277344 175.257812 137.085938 173.445312 137.695312 171.105469 L 142.765625 151.664062 L 138.378906 175.667969 C 138.378906 175.667969 135.675781 177.859375 135.746094 181.628906 C 135.859375 187.398438 136.824219 195.617188 131.828125 198.199219 C 131.816406 198.238281 131.808594 198.277344 131.78125 198.316406 C 129.824219 201.675781 129.886719 205.851562 131.25 209.492188 L 138.71875 229.453125 C 151.242188 223.320312 167.25 219.503906 184.792969 219.148438 L 184.792969 195.597656 C 184.792969 190.25 182.851562 184.839844 178.710938 181.457031 C 178.664062 181.417969 178.636719 181.371094 178.597656 181.328125 C 170.921875 180.40625 168.199219 169.359375 165.5625 161.871094 C 163.84375 156.980469 159.300781 155.464844 159.300781 155.464844 L 142.078125 126.65625 L 157.980469 149.25 C 159.894531 151.972656 163.097656 153.441406 166.414062 153.222656 C 166.480469 153.214844 166.550781 153.214844 166.617188 153.210938 C 169.066406 160.390625 172.351562 168.367188 179.933594 168.367188 C 180.925781 168.367188 181.964844 168.214844 183.046875 167.921875 C 184.363281 171.148438 185.242188 174.234375 185.769531 176.390625 C 185.96875 177.179688 186.667969 177.726562 187.480469 177.726562 L 187.507812 177.726562 C 188.324219 177.726562 189.023438 177.179688 189.21875 176.390625 C 189.746094 174.234375 190.625 171.148438 191.945312 167.921875 C 193.023438 168.214844 194.066406 168.367188 195.058594 168.367188 C 202.640625 168.367188 205.921875 160.390625 208.375 153.210938 C 208.441406 153.214844 208.507812 153.214844 208.574219 153.222656 C 211.894531 153.441406 215.097656 151.972656 217.007812 149.25 L 232.910156 126.65625 L 215.691406 155.464844 C 215.691406 155.464844 211.148438 156.980469 209.429688 161.871094 C 206.789062 169.359375 204.066406 180.40625 196.390625 181.328125 C 196.351562 181.371094 196.324219 181.417969 196.277344 181.457031 C 192.136719 184.839844 190.199219 190.25 190.199219 195.597656 L 190.199219 219.148438 C 207.738281 219.503906 223.75 223.320312 236.273438 229.453125 L 243.742188 209.492188 C 245.101562 205.851562 245.164062 201.675781 243.210938 198.316406 C 243.183594 198.277344 243.175781 198.238281 243.160156 198.199219 C 238.167969 195.617188 239.128906 187.398438 239.242188 181.628906 C 239.316406 177.859375 236.613281 175.667969 236.613281 175.667969 L 232.222656 151.664062 L 237.296875 171.105469 C 237.90625 173.445312 239.710938 175.257812 242.023438 175.953125 C 242.074219 175.96875 242.121094 175.980469 242.164062 175.996094 C 242.007812 181.511719 242.210938 187.78125 247.371094 189.710938 C 248.046875 189.964844 248.796875 190.125 249.605469 190.203125 C 249.679688 192.738281 249.492188 195.0625 249.304688 196.664062 C 249.234375 197.253906 249.574219 197.804688 250.128906 198.011719 L 250.144531 198.019531 C 250.699219 198.222656 251.316406 198.027344 251.652344 197.546875 C 252.558594 196.210938 253.945312 194.332031 255.667969 192.472656 C 256.328125 192.945312 257 193.316406 257.671875 193.566406 C 262.835938 195.5 267.101562 190.90625 270.601562 186.636719 C 270.652344 186.65625 270.695312 186.675781 270.738281 186.699219 C 272.941406 187.691406 275.496094 187.507812 277.492188 186.144531 L 294.078125 174.808594 L 275.007812 190.039062 C 275.007812 190.039062 271.53125 189.910156 269.113281 192.808594 C 265.40625 197.230469 260.738281 204.0625 255.273438 202.734375 C 255.242188 202.753906 255.210938 202.773438 255.167969 202.792969 C 251.484375 204.042969 248.789062 207.230469 247.425781 210.875 L 239.785156 231.28125 C 240.992188 231.953125 242.171875 232.632812 243.296875 233.347656 C 241.40625 234.34375 239.585938 235.417969 237.820312 236.546875 L 237.6875 236.894531 L 237.425781 236.796875 C 217.132812 249.929688 205.007812 271.007812 198.253906 287.175781 C 192.582031 300.742188 189.113281 314.507812 187.496094 325.734375 C 185.875 314.507812 182.410156 300.742188 176.734375 287.175781 Z M 113.785156 253.15625 C 113.90625 252.84375 114.03125 252.535156 114.167969 252.230469 C 114.199219 252.371094 114.21875 252.5 114.214844 252.617188 C 114.140625 252.929688 114.097656 253.089844 113.785156 253.15625 Z M 185.707031 341.089844 C 185.707031 341.089844 178.613281 312.039062 108.332031 282.90625 C 72.253906 267.957031 52.609375 219.5 55.292969 182.214844 C 55.4375 180.257812 56.734375 178.578125 58.59375 177.960938 C 61.46875 177.011719 64.480469 178.902344 64.898438 181.898438 C 72.351562 234.902344 113.984375 265.785156 117.003906 253.292969 C 119.113281 244.558594 74.566406 218.492188 84.007812 209.78125 C 92.253906 202.183594 113.347656 227.207031 129.367188 235.359375 C 172.792969 257.457031 186.417969 319.136719 185.707031 341.089844 Z M 84.476562 139.460938 C 86.308594 140.714844 88.632812 140.992188 90.71875 140.230469 C 98.585938 137.367188 106.226562 150.460938 106.226562 150.460938 C 100.25 157.339844 95.25 149.734375 91.5 145.253906 C 89.589844 142.972656 86.847656 143.070312 86.847656 143.070312 L 69.429688 129.160156 Z M 96.367188 119.292969 C 100.496094 122.535156 112.160156 132.933594 103.511719 140.980469 C 91.707031 140.589844 93.679688 125.085938 94.664062 119.929688 L 88.203125 100.070312 Z M 112.667969 132.015625 C 114.742188 131.21875 116.316406 129.488281 116.871094 127.339844 L 121.460938 109.691406 L 117.457031 131.617188 C 117.457031 131.617188 115.320312 133.34375 115.378906 136.320312 C 115.492188 142.160156 116.710938 151.179688 107.6875 149.917969 C 107.6875 149.917969 104.855469 135.019531 112.667969 132.015625 Z M 121.640625 140.429688 C 121.640625 140.429688 119.394531 142.246094 119.453125 145.378906 C 119.570312 151.535156 120.855469 161.039062 111.355469 159.707031 C 111.355469 159.707031 110.546875 155.457031 110.929688 150.933594 C 111.34375 150.859375 111.734375 150.753906 112.097656 150.617188 C 112.097656 150.617188 112.097656 150.613281 112.105469 150.613281 C 115.929688 149.1875 116.535156 144.984375 116.535156 140.875 C 116.554688 140.863281 116.566406 140.859375 116.585938 140.851562 C 118.691406 140.035156 120.320312 138.324219 120.890625 136.136719 L 126.027344 116.417969 Z M 125.824219 149.238281 C 125.824219 149.238281 123.464844 151.148438 123.523438 154.441406 C 123.652344 160.90625 125 170.890625 115.015625 169.496094 C 115.015625 169.496094 114.222656 165.328125 114.535156 160.757812 C 115.046875 160.675781 115.53125 160.558594 115.980469 160.390625 C 115.984375 160.390625 115.984375 160.390625 115.984375 160.390625 C 120.144531 158.832031 120.664062 154.128906 120.617188 149.648438 C 120.625 149.644531 120.632812 149.636719 120.644531 149.632812 C 122.8125 148.839844 124.496094 147.109375 125.078125 144.878906 L 130.214844 125.230469 Z M 94.902344 176.792969 C 96.871094 178.140625 99.390625 178.332031 101.578125 177.390625 C 101.613281 177.371094 101.652344 177.359375 101.6875 177.339844 C 104.992188 181.332031 109 185.457031 113.828125 183.644531 C 114.429688 183.425781 115.027344 183.097656 115.617188 182.691406 C 118.808594 186.070312 120.878906 189.621094 120.878906 189.621094 C 113.625 197.96875 107.554688 188.734375 103.003906 183.292969 C 100.6875 180.523438 97.355469 180.644531 97.355469 180.644531 L 78.289062 165.414062 Z M 92.351562 167.433594 C 94.289062 168.757812 96.753906 168.953125 98.925781 168.070312 C 98.949219 168.0625 98.972656 168.054688 98.992188 168.042969 C 102.097656 171.75 105.839844 175.410156 110.339844 173.726562 C 110.867188 173.53125 111.390625 173.257812 111.902344 172.917969 C 115.113281 176.230469 117.214844 179.832031 117.214844 179.832031 C 110.28125 187.808594 104.480469 178.988281 100.125 173.785156 C 97.914062 171.136719 94.730469 171.253906 94.730469 171.253906 L 75.65625 156.023438 Z M 70.40625 137.234375 L 87.222656 148.738281 C 89.085938 150.007812 91.441406 150.234375 93.566406 149.464844 L 93.613281 149.453125 C 96.316406 152.550781 99.527344 155.320312 103.355469 153.886719 L 103.359375 153.886719 C 103.726562 153.75 104.085938 153.570312 104.453125 153.355469 C 107.710938 156.519531 109.886719 160.253906 109.886719 160.253906 C 103.589844 167.496094 98.328125 159.484375 94.378906 154.761719 C 92.367188 152.359375 89.472656 152.464844 89.472656 152.464844 Z M 89.800781 158.078125 C 91.707031 159.378906 94.117188 159.578125 96.265625 158.757812 L 96.296875 158.746094 C 99.207031 162.15625 102.679688 165.367188 106.847656 163.808594 C 107.296875 163.640625 107.742188 163.410156 108.179688 163.136719 C 111.410156 166.375 113.550781 170.042969 113.550781 170.042969 C 106.933594 177.65625 101.402344 169.238281 97.25 164.273438 C 95.140625 161.746094 92.101562 161.855469 92.101562 161.855469 L 73.03125 146.628906 Z M 130.007812 158.050781 C 130.007812 158.050781 127.535156 160.054688 127.601562 163.503906 C 127.730469 170.28125 129.148438 180.75 118.679688 179.28125 C 118.679688 179.28125 117.898438 175.183594 118.144531 170.578125 C 118.761719 170.5 119.332031 170.359375 119.859375 170.164062 C 124.355469 168.480469 124.78125 163.261719 124.6875 158.429688 C 124.710938 158.421875 124.730469 158.414062 124.753906 158.40625 C 126.972656 157.644531 128.707031 155.882812 129.292969 153.609375 L 134.398438 134.042969 Z M 122.339844 189.070312 C 122.339844 189.070312 121.574219 185.035156 121.761719 180.394531 C 122.476562 180.3125 123.136719 180.164062 123.738281 179.941406 C 128.566406 178.132812 128.886719 172.390625 128.757812 167.210938 C 128.792969 167.199219 128.832031 167.1875 128.871094 167.171875 C 131.144531 166.449219 132.917969 164.652344 133.515625 162.34375 L 138.582031 142.855469 L 134.195312 166.859375 C 134.195312 166.859375 131.601562 168.953125 131.675781 172.570312 C 131.8125 179.65625 133.292969 190.605469 122.339844 189.070312 Z M 159.144531 135.957031 C 161.03125 138.644531 164.175781 140.101562 167.457031 139.941406 C 167.507812 139.9375 167.566406 139.9375 167.621094 139.933594 C 169.953125 146.664062 173.125 153.90625 180.21875 153.90625 C 181.101562 153.90625 182.027344 153.78125 182.984375 153.535156 C 185.464844 159.425781 186.417969 164.996094 186.417969 164.996094 C 173.050781 172.25 169.679688 157.4375 166.441406 148.234375 C 164.796875 143.550781 160.445312 142.101562 160.445312 142.101562 L 143.222656 113.292969 Z M 160.367188 122.671875 C 162.226562 125.316406 165.304688 126.75 168.535156 126.660156 C 168.566406 126.660156 168.597656 126.65625 168.628906 126.65625 C 170.84375 132.925781 173.902344 139.445312 180.507812 139.445312 C 181.277344 139.445312 182.082031 139.347656 182.914062 139.15625 C 185.449219 144.96875 186.417969 150.621094 186.417969 150.621094 C 173.640625 157.558594 170.421875 143.394531 167.320312 134.597656 C 165.746094 130.117188 161.589844 128.734375 161.589844 128.734375 L 144.367188 99.925781 Z M 161.59375 109.390625 C 163.421875 111.980469 166.429688 113.402344 169.597656 113.378906 C 169.613281 113.378906 169.625 113.378906 169.640625 113.378906 C 171.742188 119.175781 174.671875 124.988281 180.789062 124.988281 C 181.445312 124.988281 182.128906 124.910156 182.832031 124.761719 C 185.429688 130.496094 186.417969 136.25 186.417969 136.25 C 174.230469 142.863281 171.15625 129.351562 168.199219 120.960938 C 166.699219 116.6875 162.730469 115.367188 162.730469 115.367188 L 145.511719 86.558594 Z M 162.777344 96.109375 C 164.5625 98.652344 167.492188 100.078125 170.597656 100.113281 C 170.617188 100.113281 170.644531 100.113281 170.664062 100.113281 C 172.652344 105.410156 175.449219 110.527344 181.074219 110.527344 L 181.078125 110.527344 C 181.613281 110.527344 182.167969 110.472656 182.742188 110.367188 C 185.414062 116.007812 186.417969 121.875 186.417969 121.875 C 174.820312 128.167969 171.894531 115.3125 169.082031 107.324219 C 167.652344 103.261719 163.878906 102 163.878906 102 L 146.65625 73.191406 Z M 163.707031 82.84375 C 165.460938 85.34375 168.328125 86.8125 171.378906 86.839844 C 182.894531 86.945312 186.417969 107.496094 186.417969 107.496094 C 175.40625 113.476562 172.628906 101.269531 169.960938 93.6875 C 168.601562 89.828125 165.023438 88.632812 165.023438 88.632812 L 149.289062 62.320312 Z M 186.246094 62.59375 L 187.496094 33.898438 L 188.746094 62.59375 C 192.5 68.761719 202.511719 87.78125 187.496094 93.972656 C 172.476562 87.78125 182.492188 68.761719 186.246094 62.59375 Z M 203.609375 86.839844 C 206.664062 86.8125 209.527344 85.34375 211.28125 82.84375 L 225.699219 62.320312 L 209.96875 88.632812 C 209.96875 88.632812 206.390625 89.828125 205.03125 93.6875 C 202.359375 101.269531 199.582031 113.476562 188.570312 107.496094 C 188.570312 107.496094 192.097656 86.945312 203.609375 86.839844 Z M 211.113281 102 C 211.113281 102 207.339844 103.261719 205.910156 107.324219 C 203.097656 115.3125 200.171875 128.167969 188.570312 121.875 C 188.570312 121.875 189.578125 116.007812 192.25 110.367188 C 192.820312 110.472656 193.378906 110.527344 193.914062 110.527344 L 193.917969 110.527344 C 199.539062 110.527344 202.339844 105.410156 204.324219 100.113281 L 204.394531 100.113281 C 207.5 100.078125 210.429688 98.652344 212.214844 96.109375 L 228.335938 73.191406 Z M 212.257812 115.367188 C 212.257812 115.367188 208.292969 116.6875 206.789062 120.960938 C 203.832031 129.351562 200.757812 142.863281 188.570312 136.25 C 188.570312 136.25 189.558594 130.496094 192.160156 124.761719 C 192.859375 124.910156 193.542969 124.988281 194.199219 124.988281 C 200.320312 124.988281 203.25 119.175781 205.347656 113.378906 L 205.390625 113.378906 C 208.5625 113.402344 211.570312 111.980469 213.394531 109.390625 L 229.480469 86.558594 Z M 213.398438 128.734375 C 213.398438 128.734375 209.246094 130.117188 207.667969 134.597656 C 204.570312 143.394531 201.351562 157.558594 188.570312 150.621094 C 188.570312 150.621094 189.542969 144.96875 192.074219 139.15625 C 192.90625 139.347656 193.714844 139.445312 194.484375 139.445312 C 201.089844 139.445312 204.144531 132.925781 206.363281 126.65625 C 206.394531 126.65625 206.421875 126.660156 206.453125 126.660156 C 209.683594 126.75 212.761719 125.316406 214.621094 122.671875 L 230.625 99.925781 Z M 231.765625 113.292969 L 214.542969 142.101562 C 214.542969 142.101562 210.195312 143.550781 208.546875 148.234375 C 205.308594 157.4375 201.9375 172.25 188.570312 164.996094 C 188.570312 164.996094 189.523438 159.425781 192.007812 153.535156 C 192.964844 153.78125 193.886719 153.90625 194.769531 153.90625 C 201.863281 153.90625 205.039062 146.664062 207.367188 139.933594 C 207.425781 139.9375 207.480469 139.9375 207.535156 139.941406 C 210.8125 140.101562 213.960938 138.644531 215.847656 135.957031 Z M 241.476562 162.34375 C 242.074219 164.652344 243.84375 166.449219 246.117188 167.171875 C 246.15625 167.1875 246.195312 167.199219 246.230469 167.210938 C 246.105469 172.390625 246.421875 178.132812 251.25 179.941406 C 251.851562 180.164062 252.515625 180.3125 253.230469 180.394531 C 253.414062 185.035156 252.648438 189.070312 252.648438 189.070312 C 241.699219 190.605469 243.179688 179.65625 243.3125 172.570312 C 243.386719 168.953125 240.796875 166.859375 240.796875 166.859375 L 236.40625 142.855469 Z M 245.695312 153.609375 C 246.285156 155.882812 248.015625 157.644531 250.238281 158.40625 C 250.257812 158.414062 250.28125 158.421875 250.300781 158.429688 C 250.210938 163.261719 250.632812 168.480469 255.132812 170.164062 C 255.660156 170.359375 256.230469 170.5 256.847656 170.578125 C 257.089844 175.183594 256.3125 179.28125 256.3125 179.28125 C 245.84375 180.75 247.257812 170.28125 247.390625 163.503906 C 247.453125 160.054688 244.980469 158.050781 244.980469 158.050781 L 240.59375 134.042969 Z M 249.910156 144.878906 C 250.496094 147.109375 252.179688 148.839844 254.347656 149.632812 C 254.355469 149.636719 254.363281 149.644531 254.375 149.648438 C 254.324219 154.128906 254.84375 158.832031 259.007812 160.390625 L 259.011719 160.390625 C 259.460938 160.558594 259.941406 160.675781 260.457031 160.757812 C 260.765625 165.328125 259.972656 169.496094 259.972656 169.496094 C 249.988281 170.890625 251.339844 160.90625 251.464844 154.441406 C 251.527344 151.148438 249.167969 149.238281 249.167969 149.238281 L 244.777344 125.230469 Z M 254.097656 136.136719 C 254.671875 138.324219 256.296875 140.035156 258.40625 140.851562 C 258.421875 140.859375 258.4375 140.863281 258.453125 140.875 C 258.453125 144.984375 259.058594 149.1875 262.886719 150.613281 L 262.890625 150.617188 C 263.257812 150.753906 263.648438 150.859375 264.0625 150.933594 C 264.445312 155.457031 263.636719 159.707031 263.636719 159.707031 C 254.132812 161.039062 255.417969 151.535156 255.535156 145.378906 C 255.597656 142.246094 253.351562 140.429688 253.351562 140.429688 L 248.960938 116.417969 Z M 258.117188 127.339844 C 258.675781 129.488281 260.246094 131.21875 262.320312 132.015625 C 270.136719 135.019531 267.300781 149.917969 267.300781 149.917969 C 258.28125 151.179688 259.5 142.160156 259.613281 136.320312 C 259.667969 133.34375 257.535156 131.617188 257.535156 131.617188 L 253.527344 109.691406 Z M 278.625 119.292969 L 286.789062 100.070312 L 280.324219 119.929688 C 281.308594 125.085938 283.28125 140.589844 271.476562 140.980469 C 262.828125 132.933594 274.496094 122.535156 278.625 119.292969 Z M 285.515625 152.464844 C 285.515625 152.464844 282.625 152.359375 280.613281 154.761719 C 276.664062 159.484375 271.398438 167.496094 265.101562 160.253906 C 265.101562 160.253906 267.28125 156.519531 270.539062 153.355469 C 270.902344 153.570312 271.265625 153.75 271.628906 153.886719 L 271.632812 153.886719 C 275.460938 155.320312 278.675781 152.550781 281.375 149.453125 L 281.421875 149.464844 C 283.546875 150.234375 285.902344 150.007812 287.765625 148.738281 L 304.585938 137.234375 Z M 282.890625 161.855469 C 282.890625 161.855469 279.851562 161.746094 277.738281 164.273438 C 273.589844 169.238281 268.054688 177.65625 261.441406 170.042969 C 261.441406 170.042969 263.578125 166.375 266.808594 163.136719 C 267.25 163.410156 267.695312 163.640625 268.140625 163.808594 C 272.308594 165.367188 275.785156 162.15625 278.691406 158.746094 L 278.722656 158.757812 C 280.875 159.578125 283.28125 159.378906 285.191406 158.078125 L 301.957031 146.628906 Z M 296.703125 165.414062 L 277.636719 180.644531 C 277.636719 180.644531 274.304688 180.523438 271.988281 183.292969 C 267.4375 188.734375 261.367188 197.96875 254.113281 189.621094 C 254.113281 189.621094 256.179688 186.070312 259.371094 182.691406 C 259.964844 183.097656 260.5625 183.425781 261.164062 183.644531 C 265.992188 185.457031 269.996094 181.332031 273.300781 177.339844 C 273.335938 177.359375 273.375 177.371094 273.410156 177.390625 C 275.601562 178.332031 278.117188 178.140625 280.085938 176.792969 Z M 280.261719 171.253906 C 280.261719 171.253906 277.078125 171.136719 274.867188 173.785156 C 270.511719 178.988281 264.710938 187.808594 257.773438 179.832031 C 257.773438 179.832031 259.878906 176.230469 263.085938 172.917969 C 263.601562 173.257812 264.125 173.53125 264.648438 173.726562 C 269.152344 175.410156 272.894531 171.75 275.996094 168.042969 C 276.019531 168.054688 276.042969 168.0625 276.0625 168.070312 C 278.234375 168.953125 280.699219 168.757812 282.636719 167.433594 L 299.332031 156.023438 Z M 305.558594 129.160156 L 288.140625 143.070312 C 288.140625 143.070312 285.398438 142.972656 283.492188 145.253906 C 279.742188 149.734375 274.738281 157.339844 268.765625 150.460938 C 268.765625 150.460938 276.402344 137.367188 284.269531 140.230469 C 286.355469 140.992188 288.683594 140.714844 290.515625 139.460938 Z M 187.496094 10.046875 C 89.492188 10.046875 10.046875 89.492188 10.046875 187.496094 C 10.046875 285.5 89.492188 364.945312 187.496094 364.945312 C 285.496094 364.945312 364.945312 285.5 364.945312 187.496094 C 364.945312 89.492188 285.496094 10.046875 187.496094 10.046875 " fill-opacity="1" fill-rule="nonzero"/></g></svg>